<svg width="500" height="17" viewBox="0 0 500 17" fill="none" xmlns="http://www.w3.org/2000/svg">
<path d="M72.6563 -3.135L73.9078 -3.3454L71.4723 -3.64704L72.6398 -3.86784C73.8106 -3.86582 75.3274 -3.53497 76.1528 -3.71077C76.2536 -3.88097 74.9788 -3.9356 74.6535 -4.07121C74.3657 -4.2102 74.1308 -4.34829 73.9515 -4.48383C74.5891 -4.48236 75.2901 -4.44958 76.0128 -4.38741C76.9849 -4.28585 77.9383 -4.23649 78.7679 -4.24475C80.4645 -4.21733 82.1035 -4.24469 83.948 -4.23866L83.3343 -4.64829L85.7115 -4.55246C85.9634 -4.52125 86.2637 -4.57144 86.5113 -4.53283C88.5714 -4.20619 89.4432 -4.38419 90.4321 -4.53178C90.6349 -4.56996 90.8792 -4.59848 91.1585 -4.61657C93.9067 -4.53832 96.3849 -4.08047 98.8599 -3.84542C99.3257 -3.78541 99.7725 -3.70838 100.169 -3.61979C101.029 -3.44757 101.987 -3.30696 102.954 -3.21082C103.92 -3.11469 104.865 -3.0661 105.702 -3.06949C107.552 -3.0733 109.643 -2.95938 111.771 -2.73878C112.404 -2.66611 113.038 -2.61818 113.631 -2.59803C114.225 -2.57787 114.765 -2.58594 115.218 -2.62172L116.657 -2.38789C117.281 -2.48277 118.072 -2.53483 118.982 -2.5409C119.892 -2.54697 120.902 -2.50693 121.952 -2.42322C123.07 -2.33239 124.205 -2.27117 125.365 -2.17515C127.762 -1.99158 130.094 -1.87931 132.29 -1.84184C135.559 -1.73078 138.754 -1.64492 142.052 -1.50646C144.116 -1.43963 146.127 -1.40287 148.072 -1.39638C150.403 -1.37024 152.924 -1.24369 155.513 -1.02284C155.391 -0.815638 154.255 -0.87685 153.493 -0.883864C151.034 -0.918304 148.518 -1.00755 145.988 -1.07459C144.849 -1.10076 143.741 -1.11067 142.67 -1.10425C140.881 -1.11284 138.995 -1.16805 137.043 -1.26894C133.961 -1.37995 130.978 -1.43331 128.123 -1.42848C127.899 -1.42027 127.694 -1.40573 127.511 -1.38509C127.473 -1.36722 127.466 -1.34468 127.49 -1.31964C127.513 -1.2946 127.568 -1.26789 127.647 -1.24207C127.727 -1.21626 127.829 -1.19221 127.945 -1.17221C128.06 -1.15221 128.184 -1.13694 128.306 -1.12786C129.439 -0.987438 130.657 -0.836619 131.726 -0.815402C131.768 -0.813817 131.812 -0.810196 131.855 -0.804799C131.899 -0.799403 131.941 -0.792366 131.978 -0.784198C134.372 -0.48775 136.34 -0.537916 138.204 -0.489685C141.3 -0.359332 144.284 -0.298444 147.112 -0.307942C147.539 -0.307297 148 -0.29035 148.479 -0.257719C151.44 -0.12544 154.21 -0.110644 156.657 -0.214004C157.664 -0.240189 158.6 -0.298972 159.683 -0.299957C160.349 -0.304002 160.929 -0.341513 161.389 -0.410248C161.848 -0.478982 162.176 -0.577518 162.354 -0.699927C162.81 -0.63548 163.274 -0.578044 163.739 -0.528306C164.017 -0.499866 164.284 -0.492312 164.485 -0.507194C164.686 -0.522076 164.807 -0.558282 164.824 -0.608486C164.907 -0.74909 164.273 -0.8197 163.722 -0.879912C164.054 -0.910066 164.428 -0.927806 164.835 -0.932702C167.129 -0.964829 169.588 -0.92691 172.161 -0.819777C174.158 -0.691542 175.753 -0.795917 177.854 -0.615079C178.106 -0.583874 178.313 -0.629674 178.545 -0.640671C179.15 -0.698584 179.903 -0.711599 180.74 -0.678583C181.576 -0.645566 182.471 -0.567513 183.346 -0.451191C184.436 -0.768985 186.79 -0.405933 188.529 -0.373305C189.064 -0.211692 188.45 -0.240102 188.423 -0.195701C188.397 -0.1513 188.423 -0.19571 188.213 -0.221714C186.477 0.00715836 184.099 0.0570664 181.413 -0.0790089C180.916 -0.0784448 180.442 -0.0680166 179.997 -0.0478299C179.322 -0.0192562 178.562 -0.0221081 177.748 -0.0562651C176.859 -0.0813508 176.043 -0.0694346 175.338 -0.0210982C174.933 -0.0218864 174.59 0.00232919 174.342 0.0493169C174.093 0.0963049 173.947 0.164542 173.917 0.247689C174.188 0.311787 174.488 0.370436 174.806 0.421312C176.466 0.622184 178.121 0.705329 179.446 0.654389C181.751 0.56662 184.495 0.652271 186.947 0.622306C188.604 0.610168 190.368 0.644744 192.205 0.725387C192.205 0.725387 192.156 0.806789 192.152 0.814189C192.369 0.849434 192.597 0.877711 192.824 0.897404C192.824 0.897404 192.824 0.897404 192.846 0.860403C192.745 0.824871 192.609 0.791444 192.452 0.763992L191.906 0.69638C192.277 0.678783 192.624 0.626397 193.011 0.658404C193.825 0.71787 194.604 0.742973 195.3 0.732227C195.996 0.721478 196.594 0.675092 197.059 0.595857C197.884 0.494307 198.909 0.448125 200.069 0.460295C200.958 0.449208 201.815 0.42538 202.636 0.38893C202.636 0.38893 202.689 0.300136 203.077 0.25294C202.709 0.194729 202.325 0.147197 201.943 0.112522C200.282 0.0258929 198.616 -0.0533364 196.983 -0.112564C196.382 -0.118962 195.817 -0.109037 195.298 -0.082986C193.862 -0.0525012 192.248 -0.0957674 190.55 -0.210268C190.55 -0.210268 190.215 -0.251871 190.047 -0.272676C190.523 -0.467874 192.165 -0.272456 192.829 -0.404651C193.233 -0.402245 193.945 -0.385622 193.92 -0.420424C193.865 -0.466863 193.858 -0.510007 193.901 -0.546756C193.944 -0.583507 194.035 -0.612955 194.167 -0.632989C194.3 -0.653021 194.47 -0.663149 194.667 -0.662634C194.864 -0.662121 195.083 -0.650974 195.307 -0.630009C197.176 -0.516598 198.936 -0.48506 200.48 -0.537326C201.066 -0.536316 201.722 -0.502703 202.303 -0.494294C202.659 -0.484165 202.983 -0.489798 203.259 -0.510884C204.663 -0.666165 206.552 -0.677504 208.642 -0.5432C209.653 -0.494913 210.597 -0.488458 211.426 -0.524158C212.015 -0.53055 212.265 -0.420148 212.685 -0.36814L214.468 -0.258506L212.178 -0.121132C212.668 0.193688 213.057 0.297494 213.857 0.317108C215.024 0.346725 216.16 0.360106 217.259 0.357166C218.072 0.35458 218.743 0.28678 219.843 0.407202C220.038 0.426843 220.225 0.4332 220.374 0.425207C221.662 0.318299 223.214 0.293763 224.924 0.353275C225.809 0.153081 227.316 0.347721 228.711 0.504549C229.161 0.35375 228.345 0.284528 227.859 0.192517C229.025 0.201935 230.2 0.196557 231.404 0.218577C231.766 0.21056 232.18 0.224273 232.614 0.258635C233.047 0.292996 233.487 0.347066 233.901 0.416616C234.103 0.461556 234.346 0.495379 234.58 0.511061C234.814 0.526742 235.021 0.523085 235.158 0.500843C235.783 0.435251 236.784 0.495665 237.3 0.384868C237.484 0.359388 237.747 0.355831 238.041 0.374818C238.335 0.393806 238.642 0.434113 238.907 0.488509C238.617 0.505482 238.359 0.532209 238.139 0.5681C237.348 0.684691 237.638 0.879505 238.643 1.16273C240.184 1.14715 241.759 1.15158 243.188 1.0982C243.985 1.05028 244.961 1.06526 246.006 1.14145C247.052 1.21765 248.126 1.35204 249.108 1.5295C249.463 1.59775 249.868 1.64501 250.242 1.66191C250.616 1.67882 250.932 1.66412 251.127 1.62073C251.248 1.57056 251.286 1.50705 251.237 1.43573L250.229 1.31091C250.229 1.31091 250.268 1.24431 250.277 1.22951L251.726 1.21832C252.493 1.21793 253.292 1.23755 254.017 1.23196C255.081 1.19479 256.296 1.21551 257.587 1.29283C258.777 1.37211 259.947 1.43204 261.087 1.47208C262.189 1.5133 262.988 1.3819 264.037 1.36092C264.83 1.3451 265.703 1.362 266.622 1.41097C268.209 1.49781 269.665 1.49797 270.859 1.41143C272.25 1.87767 272.926 1.95348 274.218 1.82749L274.825 1.79151L274.991 1.89151L275.455 1.86951C276.323 1.84993 277.191 1.83035 278.097 1.82336C279.356 1.86664 280.716 1.98304 282.043 2.16123C282.295 2.19243 282.638 2.29845 282.859 2.38146C283.081 2.46447 283.563 2.71488 283.917 2.87789C283.531 2.99689 283.103 3.11068 282.797 3.24748C282.766 3.27085 282.769 3.29872 282.806 3.32885C282.842 3.35897 282.911 3.39052 283.007 3.42094C283.103 3.45137 283.223 3.47982 283.358 3.50403C283.493 3.52823 283.639 3.54751 283.783 3.56031C284.066 3.5879 284.344 3.60629 284.608 3.61473C285.905 3.62928 287.148 3.61846 288.323 3.58239C288.752 3.53149 289.34 3.52665 289.992 3.56866C290.645 3.61066 291.326 3.69709 291.927 3.81424C293.464 3.74391 295.251 3.76469 297.164 3.87514C299.187 3.80796 301.631 3.9438 303.521 3.79662C303.477 3.87063 303.672 3.99804 303.944 4.07145C304.374 4.18294 304.862 4.28628 305.386 4.37707L309.383 4.55434C309.532 4.64549 309.719 4.73777 309.94 4.82996C310.092 4.90279 310.357 4.97405 310.678 5.02864C310.999 5.08323 311.351 5.11687 311.66 5.12241C312.456 5.14942 313.122 5.08902 314.071 5.23824C312.61 5.3793 310.641 5.36056 308.513 5.18536C306.514 5.05212 304.591 4.98552 302.815 4.98806C302.23 4.98705 301.459 4.99483 301.276 5.07543C300.87 5.30323 299.81 5.26722 298.573 5.2252C297.601 5.1792 296.713 5.18436 295.983 5.24026C295.252 5.29616 294.7 5.4012 294.371 5.54674C294.287 5.68735 294.487 5.80736 295.34 5.88917L298.886 6.21725C299.409 6.17507 299.905 6.12514 300.372 6.06767C301.159 5.99133 302.131 5.97038 303.212 6.00644C304.293 6.0425 305.454 6.1346 306.605 6.27557C307.193 6.34839 307.78 6.42119 308.207 6.3866C308.581 6.34686 308.925 6.29928 309.237 6.2442C309.301 6.2073 309.326 6.16482 309.312 6.1184C309.538 6.13999 309.765 6.16805 309.984 6.20162C311.735 6.59326 313.091 6.58648 314.323 6.48489C314.657 6.4547 314.911 6.4067 315.249 6.3691C315.586 6.33151 315.705 6.28271 316.013 6.29692C318.461 6.42536 319.166 5.99635 321.229 6.01358C321.329 5.99683 321.392 5.97177 321.41 5.94073C321.429 5.9097 321.402 5.87368 321.334 5.83598C321.188 5.80195 321.02 5.77268 320.844 5.75086C320.667 5.72905 320.49 5.7154 320.326 5.71116C319.377 5.65611 318.538 5.67299 317.954 5.75892C317.54 5.79403 317.102 5.82201 316.642 5.8427L314.576 5.22144C316.578 5.27839 318.471 5.27802 320.211 5.22033C320.591 5.18793 321.234 5.24375 321.769 5.25436L325.701 5.31243C326.509 5.31724 327.198 5.21985 328.326 5.44687C328.326 5.44687 329.07 5.48348 329.269 5.45248C329.468 5.42149 330.348 5.22869 330.873 5.10309C331.483 5.1389 332.327 5.23553 332.707 5.20313C333.371 5.12356 333.945 5.02156 334.42 4.89894L336.795 5.07398C336.793 5.22947 336.706 5.37575 336.537 5.5106C336.351 5.64064 336.358 5.79674 336.555 5.96614C336.752 6.13554 337.135 6.31342 337.672 6.48525L340.017 7.39533C340.4 7.45628 340.808 7.49729 341.186 7.51283C341.564 7.52837 341.893 7.51766 342.129 7.48216C343.138 7.37677 344.269 7.29438 345.278 7.18899C346.58 7.35022 346.245 7.61063 347.192 7.83905L350.257 8.2187C350.725 8.57053 351.201 8.90754 349.779 9.02533C349.496 9.04592 349.687 9.18074 349.429 9.23614C350.534 9.50016 351.75 9.57919 352.87 9.74182C353.312 9.85877 353.681 9.98257 353.961 10.1072C354.267 10.2949 354.889 10.4867 355.692 10.6411C356.494 10.7954 357.413 10.9001 358.249 10.9323C359.653 11.0312 361.091 11.1796 362.497 11.371C362.977 11.4376 363.471 11.4861 363.945 11.5132C364.419 11.5404 364.861 11.5456 365.243 11.5285C366.604 11.4983 367.756 11.3947 368.624 11.2243C369.482 11.0797 370.639 11.01 371.989 11.0215C374.299 11.3076 374.765 11.7386 376.162 12.1183L373.748 12.1608C373.661 12.3088 373.82 12.4954 372.831 12.492C371.841 12.4886 372.343 12.6302 372.664 12.7732C372.777 12.8452 372.998 12.9192 373.289 12.9827C373.58 13.0462 373.923 13.0954 374.26 13.1219L376.316 13.3049C377.044 13.3746 377.75 13.4043 378.354 13.3909C378.958 13.3774 379.438 13.3213 379.741 13.2288C380.089 13.1408 380.569 13.0814 381.152 13.054C381.895 12.9822 382.506 12.8756 382.962 12.738L385.863 12.9384C385.987 12.8002 386.385 12.7032 386.992 12.664C387.598 12.6248 388.375 12.6456 389.191 12.7231L391.147 12.8461C393.321 12.9804 393.798 12.9362 394.434 12.5464L391.827 11.8501C392.206 11.6667 392.572 11.5055 392.938 11.3443C392.288 11.1149 391.422 10.8979 390.426 10.7154C389.497 10.5193 388.541 10.3294 387.563 10.1464C386.502 9.95935 385.381 9.79672 384.064 9.58589C383.834 9.51769 383.5 9.39687 383.073 9.28046C382.646 9.16733 382.2 9.05645 381.737 8.94823C381.825 8.80022 381.904 8.66702 381.735 8.49521C382.547 8.55003 383.385 8.64591 384.174 8.77421C384.964 8.90251 385.68 9.05918 386.258 9.23011C386.355 9.26043 386.474 9.2889 386.607 9.31361C386.74 9.33831 386.884 9.35869 387.03 9.37333C388.455 9.47836 389.136 9.69777 389.833 9.96679C390.302 10.1043 390.907 10.2264 391.564 10.3162C392.824 10.4722 394.057 10.6727 395.262 10.8457C395.631 10.9034 396.014 10.9508 396.396 10.9861C397.655 11.0984 398.922 11.2553 400.133 11.449C400.528 11.4982 400.907 11.5634 401.239 11.639C401.571 11.7146 401.845 11.7985 402.039 11.8836C401.739 11.9769 401.577 12.0947 401.563 12.2298C401.511 12.3186 402.395 12.4997 402.813 12.6309C403.231 12.7621 402.411 12.7003 402.133 12.7135C400.991 12.7389 400.779 12.7921 401.463 13.0833C401.692 13.1748 401.843 13.2665 401.909 13.3525C401.974 13.4384 401.952 13.5169 401.843 13.5831C401.681 13.8569 401.187 14.0817 400.848 14.3495C401.375 14.5259 402.254 14.7144 402.35 14.9328C402.396 14.9812 402.494 15.0325 402.635 15.0831C402.777 15.1336 402.959 15.182 403.169 15.2248C403.722 15.3172 404.224 15.4278 404.638 15.5478C405.051 15.6679 405.364 15.7943 405.553 15.9173C405.615 15.9681 405.764 16.022 405.971 16.0683C406.177 16.1145 406.426 16.1496 406.668 16.1665C406.956 16.1873 407.214 16.1845 407.389 16.1588C407.563 16.1332 407.641 16.0865 407.606 16.0285C407.613 15.9195 407.575 15.8059 407.492 15.6887C407.54 15.6073 407.588 15.5259 407.398 15.3911C408.258 15.4403 409.162 15.5389 410.01 15.6761C410.859 15.8134 411.619 15.9842 412.21 16.1698C412.862 16.3618 413.464 16.5634 414.187 16.788C414.038 17.0396 414.038 17.0396 415.577 17.4845L423.743 17.7014L425.416 17.996C426.977 18.2529 427.348 18.2353 428.328 18.1025L428.988 17.9777C430.373 18.1493 431.969 18.347 432.836 18.0254C433.117 18.235 433.301 18.3054 433.237 18.3372C432.823 18.6465 432.105 18.909 431.109 19.1142C430.855 19.1622 430.676 19.2354 430.381 19.2782C429.427 19.5197 429.206 19.893 429.762 20.3216C430.039 20.5113 430.44 20.7055 430.953 20.898C430.202 21.1652 429.206 21.3866 427.994 21.5562C426.965 21.6874 426.117 21.8632 425.476 22.0784C424.9 22.2954 424.037 22.4585 422.937 22.5584C422.38 22.6008 421.973 22.6846 421.757 22.8014C421.693 23.1174 421.84 23.4558 422.196 23.809C422.263 23.9165 422.454 24.0326 422.753 24.1482C423.052 24.2637 423.451 24.3757 423.92 24.4752C423.92 24.4752 424.146 24.5509 424.254 24.5961C424.344 24.9788 424.006 25.3161 423.262 25.5853C423.14 25.6617 422.891 25.7168 422.541 25.7448C422.19 25.7729 421.753 25.7727 421.275 25.7443C420.265 25.6987 419.322 25.693 418.345 25.6674C417.293 25.6312 416.366 25.6597 415.662 25.7501C414.958 25.8404 414.503 25.9892 414.345 26.1808C414.335 26.235 414.304 26.2869 414.253 26.3362C414.223 26.3616 414.207 26.3888 414.205 26.4176L416.447 27.0448L413.91 27.2946C413.761 27.5462 414.979 27.697 415.589 27.8839L415.212 27.988C414.726 28.047 414.072 27.9342 413.48 27.8688L412.892 27.796L412.822 27.9144C412.456 28.0756 411.121 27.8944 410.6 28.0126C410.079 28.1308 410.451 28.2642 411.231 28.3926C411.774 28.4881 412.356 28.5642 412.935 28.6152C413.514 28.6662 414.073 28.6909 414.572 28.6873C414.87 28.6746 415.117 28.6458 415.299 28.6025C416.352 28.4181 417.515 28.2596 418.78 28.1281C419.75 28.01 420.964 27.9598 422.338 27.981C422.741 27.9721 423.227 28 423.711 28.0599C424.195 28.1199 424.645 28.2079 424.984 28.3086L425.695 28.3252C425.695 28.3252 426.084 28.429 426.029 28.446C425.758 28.7536 426.073 29.1296 426.926 29.5183L426.184 29.5535C425.124 29.5175 425.796 29.7517 425.638 29.8671C424.884 29.8453 423.905 29.7478 423.548 29.8942L423.013 29.8836L423.223 29.9096L423.477 29.8617L424.474 30.0805C424.002 30.1173 423.66 30.1623 423.242 30.1821C423.012 30.1993 422.828 30.2297 422.703 30.2715C422.577 30.3133 422.512 30.3656 422.512 30.4253C422.513 30.5171 422.389 30.5943 422.151 30.6497C421.913 30.705 421.569 30.7366 421.153 30.7414C420.656 30.7434 420.371 30.8432 420.08 30.8786L421.346 31.4803C421.346 31.4803 420.716 31.4023 421.059 31.5083L421.103 31.4343L421.87 31.5849C422.423 31.7169 422.809 31.7489 423.136 31.6543C423.462 31.5597 423.388 31.6855 423.545 31.6493C423.488 31.7455 423.132 31.8127 422.828 31.8703C422.476 31.9155 422.078 31.9489 421.642 31.9697C422.428 32.3927 422.466 32.4053 421.317 32.5173C420.169 32.6293 420.565 32.7975 419.605 32.8215C418.644 32.8455 419.736 33.1317 420.379 33.1875C420.856 33.2242 421.342 33.2814 421.804 33.3551C422.266 33.4287 422.693 33.5172 423.056 33.6144L422.863 33.94C422.58 33.913 422.297 33.878 422.023 33.836C421.093 33.6571 420.246 33.4887 419.418 33.5927L419.812 33.8401L416.922 33.6967C416.997 33.8821 417.438 34.0933 418.151 34.2857C418.043 34.3914 417.977 34.5027 417.953 34.6187C417.905 34.7001 417.62 34.6489 417.434 34.6577C416.773 34.6713 416.23 34.7265 415.853 34.8184C415.476 34.9102 415.277 35.0359 415.274 35.1845C415.2 35.3103 416.217 35.5714 416.853 35.5628C418.441 35.5879 420.159 35.6846 421.913 35.8479C422.982 35.8691 423.133 35.5383 424.892 35.7641C424.927 35.9168 424.702 36.0405 424.25 36.1164C423.799 36.1923 423.145 36.2164 422.389 36.1849C422.819 36.5241 425.201 36.6125 425.306 36.9671C424.713 36.9421 424.079 36.8832 423.466 36.7962C422.854 36.7091 422.284 36.5971 421.814 36.4711C421.712 36.44 421.585 36.4114 421.443 36.3878C421.302 36.3643 421.15 36.3465 421.004 36.3363C420.857 36.326 420.719 36.3236 420.604 36.3292C420.488 36.3347 420.398 36.3482 420.342 36.3682C420.672 36.4964 421.035 36.6447 421.449 36.7833C421.862 36.9219 421.962 36.9819 422.26 37.0109C424.486 37.2865 425.544 37.783 427.469 38.1088C427.973 38.1712 428.036 38.3696 427.598 38.3472C427.182 38.3248 426.805 38.3277 426.51 38.3557C426.215 38.3837 426.013 38.4356 425.927 38.5056C425.604 38.5873 425.202 38.6523 424.731 38.699C426.705 39.2084 429.06 39.6586 431.573 40.0071C432.049 40.076 432.545 40.118 432.989 40.127C434.392 40.1275 435.881 40.1679 437.425 40.2474C437.973 40.2691 438.479 40.2671 438.916 40.2415C440.35 40.1807 441.488 40.3137 442.528 40.6887L444.249 41.2832C444.192 41.3794 443.903 41.4866 443.68 41.6338L445.025 41.9512L455.284 41.2202L457.344 41.928L460.297 41.8887C460.523 41.9091 460.751 41.9373 460.969 41.9719C461.566 42.1809 462.033 42.3817 462.681 42.5811C463.329 42.7805 464.487 42.8048 465.294 43.0398C466.101 43.2748 466.91 43.2796 467.909 43.4192C468.003 43.6011 467.906 43.7649 467.624 43.9002C467.532 44.0556 467.024 44.1516 466.936 44.2996C466.946 44.4492 466.757 44.5762 466.387 44.6691C466.018 44.762 465.478 44.8179 464.818 44.8316C462.97 45.1501 460.741 45.3769 458.199 45.5052C457.975 45.5145 457.79 45.536 457.655 45.5684C457.519 45.6008 457.436 45.6434 457.411 45.6936C457.414 45.8387 457.245 45.9642 456.915 46.0607C456.585 46.1573 456.102 46.2225 455.503 46.2515C455.343 46.2574 455.222 46.2756 455.156 46.304C454.929 46.3222 454.763 46.3572 454.675 46.4055C454.587 46.4538 454.58 46.5139 454.654 46.5798C454.729 46.6456 454.882 46.7152 455.099 46.7817C455.316 46.8482 455.59 46.9094 455.895 46.9594C456.336 47.0399 456.787 47.1169 457.245 47.1902C457.219 47.2346 456.764 47.2418 456.83 47.2818C457.01 47.4095 457.051 47.5291 456.952 47.6312C456.852 47.7333 456.614 47.8151 456.256 47.87L458.708 48.9045C460.196 49.0478 461.656 49.2908 462.811 49.5874C462.812 49.636 462.746 49.6767 462.618 49.7055C462.49 49.7343 462.306 49.7501 462.083 49.7514C461.484 49.7726 460.919 49.8138 460.274 49.8372C459.88 49.8546 459.552 49.8931 459.309 49.9503C459.066 50.0075 458.913 50.0823 458.859 50.1703L460.299 50.5552C459.838 50.649 459.496 50.694 459.191 50.7516C459.364 50.8725 459.661 50.9976 460.059 51.1171C460.457 51.2367 460.945 51.3475 461.487 51.441C461.632 51.4603 461.78 51.4744 461.923 51.4825C462.065 51.4905 462.199 51.4924 462.316 51.488C463.43 51.3561 464.735 51.5891 466.001 51.8095C467.268 52.0299 467.956 52.1628 468.891 52.3342L470.68 52.3572C471.133 52.4384 471.537 52.5338 471.86 52.6359C472.183 52.738 472.416 52.8438 472.54 52.9451C472.444 53.1079 471.595 53.0186 471.089 53.0354C469.89 53.1368 468.312 53.1151 466.618 52.9742C466.198 52.9222 465.768 52.9642 465.359 52.9691C464.478 52.9894 463.631 53.0224 462.822 53.0679C462.289 53.1103 461.791 53.1627 461.331 53.2249C461.209 53.4321 463.142 53.5921 462.045 53.6945C462.423 53.7413 462.564 53.8065 462.758 53.7829C464.003 53.9175 465.23 53.984 466.296 53.9748C468.341 53.9462 470.664 54.0406 473.074 54.2503C475.675 54.4675 478.17 54.5588 480.353 54.5164C481.185 54.514 482.115 54.5584 483.071 54.6465C484.201 54.7684 485.322 54.8451 486.363 54.8715C486.708 54.8725 487.092 54.8932 487.484 54.9321C487.876 54.971 488.265 55.027 488.62 55.0954C488.589 55.1472 488.251 55.1848 488.326 55.21C489.404 55.5976 489.841 56.0012 491.499 56.3973C492.633 56.5377 493.935 56.6989 494.676 56.5127C495.417 56.3265 495.152 56.1665 493.676 55.6899C493.996 55.683 494.382 55.7053 494.766 55.7528C495.15 55.8003 495.507 55.8701 495.776 55.9499L497.052 56.3066L498.202 56.6476C498.101 56.8178 498.022 56.951 497.939 57.0916C497.807 57.241 497.952 57.4227 498.352 57.6114C498.593 57.7145 498.804 57.8175 498.981 57.9197C499.7 58.3282 499.908 58.7143 499.582 59.0347C498.957 59.4954 498.088 59.9193 496.983 60.3015C495.816 60.6733 495.178 61.1423 494.216 61.5475C493.726 61.732 493.13 61.8974 492.436 62.0419C491.119 62.3633 489.675 62.6691 488.354 62.9979C487.032 63.3267 485.539 63.5628 484.072 63.8338C481.886 64.1554 479.524 64.4332 476.998 64.6656C475.435 64.8691 473.83 65.0675 472.384 65.3015C470.676 65.5653 468.67 65.7547 466.416 65.865C464.424 65.9971 462.645 66.1925 461.112 66.4474C460.952 66.4749 460.825 66.51 460.735 66.5516C460.459 66.8115 459.686 66.9947 458.533 67.0732C458.603 67.1493 458.693 67.2266 458.801 67.305C458.961 67.3983 458.995 67.4857 458.897 67.5557C458.799 67.6258 458.575 67.6752 458.253 67.6978C457.331 67.7622 456.564 67.8715 455.988 68.021C455.776 68.0584 455.645 68.1131 455.605 68.1801C455.565 68.2471 455.618 68.3245 455.76 68.4058C455.885 68.4894 455.894 68.5663 455.786 68.6265C455.678 68.6868 455.458 68.7276 455.154 68.7438C454.373 68.8229 453.538 68.8866 452.652 68.9343C450.767 69.0397 448.576 69.0385 446.209 68.9306C445.957 68.8994 445.703 68.9474 445.409 68.911C443.735 68.7902 442.18 68.7715 440.933 68.8572C439.471 68.8905 437.943 68.8839 436.401 68.8995C434.173 68.889 432.119 68.9526 430.294 69.0884C428.208 68.9572 427.036 69.1853 425.276 69.1897C423.65 69.2132 422.11 69.2694 420.669 69.3579C418.345 69.4752 416.031 69.5778 413.741 69.7152C411.592 69.7807 409.614 69.9058 407.84 70.0885C407.16 70.1711 405.929 70.0425 405.466 70.2155C405.003 70.3885 404.069 70.368 403.313 70.4254L400.93 70.5672C400.521 70.6009 400.07 70.6223 399.586 70.631C397.37 70.6426 395.836 70.8735 393.78 70.9207L393.57 70.8947C389.918 71.2381 385.74 71.4265 381.158 71.4545C378.481 71.5599 375.554 71.5548 372.714 71.632C372.036 71.7864 370.436 71.5962 369.586 71.7372C368.737 71.8782 367.349 71.7857 366.253 71.8089C365.158 71.8321 364.087 71.8901 362.916 71.8881C361.9 71.8887 361.041 71.9517 360.419 72.0712C358.998 72.2688 357.267 72.385 355.302 72.4146C352.702 72.4659 350.244 72.5825 347.6 72.5569C347.638 72.7009 347.476 72.8234 347.13 72.9118C346.785 73.0003 346.268 73.0514 345.634 73.06C342.807 73.115 340.243 73.2582 337.378 73.3005L336.612 73.3009L328.044 73.3836C325.735 73.3995 323.511 73.4259 321.157 73.4441C320.275 73.3349 320.253 73.5229 319.644 73.487C319.473 73.3944 319.272 73.3536 318.972 73.4038L318.906 73.5148L309.128 73.6621C305.299 73.7698 301.272 73.8021 297.081 73.7587C296.086 73.7696 295.158 73.8064 294.311 73.8685C293.526 73.8911 292.707 73.9011 291.859 73.8984C290.713 73.8705 289.593 73.8564 288.504 73.8562C285.639 73.8985 282.633 73.8757 279.496 73.8446C276.359 73.8136 273.982 73.8688 271.19 73.8645C269.299 73.8607 267.417 73.8421 265.46 73.7982C264.526 73.7778 263.374 73.667 262.407 73.6266C261.439 73.5862 261.123 73.5868 260.995 73.6504C260.574 73.8285 259.515 73.7133 258.669 73.6959C257.019 73.6663 256.785 73.6055 256.337 73.1449L258.361 72.9985C258.858 72.9512 259.482 72.9429 260.174 72.9744C260.866 73.0058 261.602 73.0759 262.312 73.178C262.591 73.2217 262.883 73.2562 263.171 73.2796C263.459 73.303 263.737 73.3148 263.989 73.3142C266.032 73.2892 268.047 73.2368 270.01 73.1941L270.297 73.1661L270.315 72.7553C270.055 72.7149 269.786 72.6816 269.517 72.6565L259.669 72.3899C257.409 72.3245 255.062 72.1768 252.844 72.1166C250.626 72.0563 249.431 72.0195 247.71 71.9573C246.984 71.9218 246.243 71.8752 245.494 71.8178C245.537 71.7783 245.562 71.7362 245.568 71.692C245.608 71.6254 245.66 71.5366 245.342 71.4654C244.995 71.3649 244.531 71.279 244.042 71.225C243.583 71.1893 243.139 71.1691 242.725 71.1652C240.728 71.1308 238.447 70.9138 236.368 70.5605L235.642 70.7963C232.52 70.6638 229.352 70.5335 226.091 70.4077C225.438 70.3734 224.753 70.3075 224.087 70.215C223.373 70.1266 222.716 69.942 221.965 69.841C221.222 69.7683 220.485 69.7116 219.766 69.672C219.961 69.6113 220.217 69.5628 220.528 69.528C220.833 69.5158 221.055 69.4779 221.163 69.4198C221.27 69.3616 221.257 69.2864 221.125 69.2048C220.892 69.0648 220.79 68.933 221.296 68.9162C221.763 68.8842 222.097 68.8151 222.259 68.717C222.421 68.6188 222.404 68.4957 222.21 68.3621C222.125 68.2841 222.065 68.2077 222.03 68.1333L221.82 68.1073C221.128 67.8309 219.744 67.7311 218.752 67.5049C218.283 67.4393 217.798 67.4016 217.373 67.3976C216.275 67.349 215.205 67.3278 214.07 67.2666C213.527 67.2384 212.96 67.1871 212.401 67.1155C211.604 67.0167 211.52 67.0063 211.056 66.6471C211.776 66.6534 212.346 66.5997 212.671 66.4952C212.996 66.3907 213.055 66.2417 212.839 66.0735C212.245 65.7061 211.618 65.3187 208.933 65.0576C209.809 65.0448 210.652 65.0192 211.458 64.9811C211.692 64.9728 211.868 64.9459 211.961 64.9037C212.054 64.8615 212.061 64.8062 211.979 64.7452C211.898 64.6841 211.732 64.6202 211.505 64.562C211.278 64.5039 211 64.4542 210.709 64.4196C209.292 64.2118 207.813 64.0727 206.439 64.018C205.282 63.9937 204.237 64.0073 202.885 64.0067L201.289 63.8091C201.316 63.7647 201.081 63.7039 201.141 63.6795C201.546 63.4517 201.994 63.229 202.454 62.9842C201.719 62.8521 201.081 62.6925 200.615 62.5238C200.149 62.3551 199.873 62.1841 199.819 62.0304C199.78 61.984 199.79 61.9417 199.85 61.9066C199.91 61.8714 200.017 61.8443 200.165 61.827C200.585 61.7972 200.91 61.7405 201.113 61.661C201.316 61.5815 201.394 61.4815 201.339 61.3686L200.098 60.9527C196.361 60.656 192.692 60.4441 189.158 60.3207L185.968 60.2275C185.583 60.1163 185.703 60.0675 186.065 60.0647C186.427 60.0619 187.445 60.0927 188.157 60.1093C188.771 60.1311 189.317 60.1168 189.741 60.0677C190.165 60.0186 190.453 59.9365 190.577 59.8291L189.505 59.3549C189.558 59.2661 189.633 59.1403 190.214 59.1487C190.611 59.1384 190.903 59.0937 191.044 59.0218C191.185 58.9499 191.165 58.855 190.989 58.7523C190.963 58.6781 191.003 58.6104 191.108 58.5525C191.967 58.5477 192.822 58.5503 193.602 58.5277C193.965 58.5203 194.271 58.4928 194.501 58.4471C194.73 58.4015 194.876 58.3388 194.93 58.2634C194.958 58.1897 194.89 58.1058 194.73 58.0184C194.571 57.931 194.324 57.8426 194.011 57.7603C192.789 57.6585 191.672 57.6572 190.903 57.7567C190.629 57.8346 190.189 57.8772 189.641 57.8788C189.093 57.8804 188.463 57.8409 187.833 57.7656C187.112 57.6788 186.392 57.6406 185.804 57.658C185.215 57.6754 184.796 57.7471 184.622 57.8604C183.881 57.8164 183.225 57.7828 182.578 57.7344C181.814 57.6733 181.092 57.6553 180.49 57.6823C179.527 57.7014 178.489 57.6902 177.4 57.6491C174.26 57.5462 171.117 57.4508 168.077 57.4079C167.273 57.3957 166.577 57.4287 165.782 57.4017C164.987 57.3747 164.357 57.4477 163.363 57.3006C163.173 57.2778 162.983 57.2631 162.806 57.2578C162.629 57.2524 162.471 57.2565 162.344 57.2698C160.598 57.3861 158.55 57.4025 156.321 57.3181C153.268 57.2975 150.102 57.239 147.045 57.2258C146.148 57.2372 145.301 57.2677 144.512 57.3171C143.911 57.347 143.282 57.3672 142.628 57.3777C142.127 57.3871 141.647 57.3595 141.732 57.5209C141.816 57.6823 141.065 57.5813 140.632 57.5515C139.144 57.4732 137.623 57.3673 136.087 57.2348C134.573 57.0909 133.089 57.0071 131.725 56.9885C130.74 56.9777 129.724 57.0187 128.457 56.7983C128.506 56.7169 128.554 56.6355 128.83 56.5505C127.797 56.3166 126.618 56.1154 125.391 55.9634C124.164 55.8115 122.925 55.7132 121.775 55.6767L120.189 55.2341C119.799 55.1821 119.4 55.1443 119.018 55.1228C118.635 55.1014 118.277 55.0968 117.964 55.1094C117.723 55.1159 117.428 55.0994 117.135 55.0631C116.842 55.0268 116.57 54.9731 116.368 54.9118C116.067 54.8339 115.7 54.7666 115.311 54.7185C114.923 54.6704 114.531 54.6436 114.185 54.6414C113.095 54.5932 111.932 54.4821 110.815 54.3193C110.525 54.2239 110.343 54.1253 110.292 54.0357C110.241 53.9461 110.323 53.8694 110.528 53.8151C110.858 53.7192 111.043 53.597 111.073 53.4559C111.102 53.3148 110.975 53.1577 110.699 52.9943C110.557 52.8939 110.51 52.7989 110.56 52.7149C110.61 52.631 110.755 52.5599 110.988 52.5059C111.857 52.2561 111.625 52.116 110.203 51.7016C109.972 51.6325 109.693 51.5679 109.385 51.512C109.077 51.456 108.746 51.4099 108.412 51.3766C107.63 51.309 106.859 51.2588 106.112 51.2267C105.692 51.1747 105.261 51.2167 104.778 51.1965C102.358 51.0955 102.004 50.9324 101.221 50.5812L100.65 50.3278C99.5908 50.1225 98.4326 49.952 97.2587 49.8286C96.0848 49.7052 94.9244 49.6319 93.861 49.6141C93.4383 49.6127 92.9524 49.5777 92.4777 49.5142C90.9329 49.3203 89.3685 49.1861 87.888 49.1206C86.9655 49.0836 85.971 48.9881 85.0241 48.8455C84.0772 48.7029 83.2181 48.5191 82.55 48.3164C81.9498 48.1338 81.1646 47.97 80.3037 47.8476C79.2959 47.7228 79.2025 47.5762 79.7653 47.4632C80.3281 47.3502 81.2707 47.2048 82.1074 47.086C82.3985 47.0456 82.5789 46.98 82.6284 46.8964C82.678 46.8127 82.5948 46.7144 82.388 46.6124C82.2553 46.4378 82.2323 46.2721 82.3196 46.1194C82.3662 46.0559 82.334 45.9831 82.2251 45.9059C82.1163 45.8288 81.9332 45.749 81.6884 45.672C81.4435 45.595 81.1426 45.5226 80.8059 45.4596C80.4691 45.3966 80.1042 45.3445 79.7361 45.3069C78.1823 45.1145 76.6706 44.9272 75.0862 44.7866C74.4222 44.7203 73.7589 44.6382 73.1126 44.5422C71.7895 44.3047 70.3741 44.1078 68.9484 43.9629C68.2718 43.8981 67.6103 43.7848 67.1071 43.6474C65.5199 43.2775 64.0573 42.8886 62.746 42.4877C62.4299 42.3634 62.0164 42.2421 61.5312 42.1314C61.0461 42.0208 60.4999 41.9231 59.9268 41.8447C59.4649 41.7875 59.0889 41.6614 58.7329 41.5776C58.4742 41.3835 58.4465 41.204 58.6526 41.0558C58.8587 40.9077 59.2917 40.7958 59.911 40.7306C60.4982 40.6524 61.0478 40.5616 61.5554 40.4656C62.1674 40.388 62.8948 40.3414 63.7108 40.3275C64.6772 40.2858 65.3918 40.1667 65.7615 39.9857C63.116 39.658 60.6002 39.1876 58.2813 39.2975L56.5194 38.9999C56.5895 38.8815 56.6509 38.7779 56.7079 38.6817C57.127 38.5066 57.2579 38.2857 57.0895 38.0379C56.9507 37.918 56.9633 37.8089 57.1258 37.7216C57.2883 37.6343 57.5951 37.572 58.0152 37.5409C60.5032 37.2215 63.3805 37.0059 65.7138 36.6436C66.4454 36.5755 67.3018 36.5446 68.247 36.5522C69.1614 36.5304 69.1231 36.3668 68.0708 36.165C67.4802 36.0595 66.8781 35.9584 66.267 35.8621C63.572 35.8461 62.4742 36.3297 59.3988 36.195L57.9734 35.5578C57.5879 35.5479 57.2137 35.5441 56.8534 35.5462L51.6967 35.8051C51.2672 35.8181 50.9328 35.8624 50.7317 35.9329C50.5305 36.0035 50.4705 36.0975 50.5586 36.2043C50.5935 36.335 50.5225 36.4548 50.3481 36.5595C50.2356 36.6328 50.3076 36.7303 50.5481 36.8305C51.0903 37.0565 50.3946 37.0895 49.9553 37.1463C49.843 37.1519 49.7135 37.1513 49.5744 37.1446C49.4352 37.1379 49.2891 37.1252 49.1446 37.1073C49 37.0894 48.8599 37.0667 48.7324 37.0403C48.6049 37.014 48.4924 36.9846 48.4016 36.9539C47.6276 36.7389 46.9506 36.5121 46.1897 36.2748C46.7299 36.0478 46.0943 35.6752 46.9372 35.4698C47.0315 35.4288 47.0692 35.3788 47.0481 35.3229C47.0269 35.267 46.9474 35.2064 46.8143 35.1448C46.471 34.9858 46.3076 34.8307 46.3403 34.6953C46.3731 34.5599 46.601 34.4489 47.0009 34.3736L47.0492 34.2922C45.9943 34.0186 46.2738 33.7751 45.8595 33.4855L44.8448 33.2963C42.3202 32.8406 42.3158 32.848 40.1423 32.8648C39.7042 32.6914 40.2608 32.665 40.6782 32.6452L44.1741 32.4507C46.4598 32.3207 48.8119 32.2307 51.3652 32.1816C53.9185 32.1324 56.765 31.9686 59.4042 31.8507C59.5376 31.8415 59.6397 31.8235 59.7019 31.798C59.764 31.7725 59.7844 31.7404 59.7614 31.7043C59.6565 31.6652 59.5192 31.6275 59.3596 31.594C59.2 31.5605 59.0223 31.532 58.8394 31.5107C57.9996 31.4066 57.1378 31.3396 56.2429 31.2526L54.5744 31.1016L54.0611 30.903C53.7271 30.7822 53.4988 30.6347 53.0544 30.5479C52.6882 30.4832 52.2907 30.434 51.9033 30.4056C51.5158 30.3772 51.1526 30.3705 50.8515 30.3863C50.0167 30.4259 49.2615 30.4833 48.4643 30.5355C47.6671 30.5877 47.2278 30.6444 46.5365 30.67C45.132 30.6817 43.7746 30.7124 42.4703 30.7622C41.3717 30.8799 40.3555 31.0194 39.4282 31.1798C38.8498 31.2432 38.3088 31.3191 37.3211 31.2365C36.8524 31.1616 36.4483 31.0632 36.1802 30.9587C35.912 30.8543 35.7973 30.7505 35.8563 30.6659C35.9093 30.5995 36.0593 30.547 36.2923 30.5133C36.5252 30.4796 36.8332 30.4658 37.1874 30.4733C38.1789 30.4611 39.0957 30.42 39.9194 30.3509C41.066 30.2257 42.4617 30.1718 44.0251 30.1922C44.5553 30.2102 44.9107 30.143 45.3745 30.121C45.8382 30.099 46.2311 30.0444 46.7482 30.0846C48.3545 30.1882 49.1248 30.0295 50.0874 29.9263C50.4133 29.8805 50.6152 29.8066 50.6709 29.7126C50.7266 29.6186 50.634 29.5081 50.4032 29.3935C49.9589 29.165 49.4154 28.9353 48.7812 28.708C48.4547 28.5962 48.0365 28.4901 47.5594 28.3979C47.0822 28.3058 46.559 28.23 46.0309 28.1767C45.7148 28.0369 45.5462 27.8993 45.5402 27.7765C45.5343 27.6537 45.6913 27.5496 45.997 27.4735C46.776 27.2999 47.4666 27.1233 49.2121 27.2204C50.0327 27.2574 50.805 27.2645 51.4983 27.2414C53.0361 27.2097 54.8099 27.279 56.6526 27.4429C57.1294 27.4848 57.598 27.5135 58.0447 27.5279C61.2304 27.6286 64.2656 27.6788 67.3096 27.7142C68.9222 27.7313 70.548 27.7261 72.2314 27.7757C76.1792 27.8834 79.7729 27.8281 83.5835 27.8631C85.5792 27.8811 87.3655 27.8086 88.8487 27.6494C89.1375 27.596 89.3856 27.5337 89.59 27.4632C88.6071 27.2782 87.5275 27.1317 86.4546 27.0377C85.3816 26.9438 84.3513 26.9055 83.4624 26.9267C82.9737 26.9785 82.342 26.9879 81.6378 26.954C80.9337 26.9201 80.1847 26.8442 79.4744 26.7346L81.5395 26.6726C82.9089 26.6437 84.3115 26.6347 85.6433 26.5931C87.7592 26.5215 89.7202 26.4069 91.9112 26.3606C93.6802 26.3179 95.2631 26.2089 96.6104 26.037C97.5837 25.9116 98.6954 25.8227 99.9227 25.7721C100.795 25.7451 100.795 25.7451 101.353 25.4885C100.91 25.3225 100.338 25.2993 99.7991 25.2961C96.5677 25.1916 93.4926 25.1733 90.6362 25.2415C89.1951 25.2476 87.9166 25.3179 86.8621 25.4493C86.6039 25.5047 85.9433 25.4785 85.4131 25.4604C83.7509 25.4331 82.1623 25.441 80.6662 25.4842C78.5978 25.5562 76.2942 25.5391 73.8448 25.4337C73.3803 25.3047 73.915 25.3153 73.9413 25.2709C75.8384 25.1881 77.6979 25.0927 79.6326 25.0225C80.1615 24.9975 80.7269 24.9852 81.3223 24.9856C83.5452 25.0291 85.3977 24.9085 86.62 24.6408C86.6814 24.5372 87.4855 24.5495 87.8409 24.4823C88.0157 24.4241 88.1321 24.3556 88.1867 24.2788C87.669 24.0876 87.0837 24.0866 86.633 24.0864C85.3254 24.1077 84.0675 24.1482 82.8653 24.2076C81.7476 24.2641 80.5105 24.2792 79.1875 24.2525C78.211 24.2269 77.3762 24.2665 76.391 24.2557C75.8566 24.2329 75.3034 24.1964 74.7427 24.1468C75.367 24.0135 76.2156 23.9316 77.2289 23.9067C77.9973 23.8271 78.9581 23.8031 79.0809 23.5959C78.7179 23.4477 78.3137 23.4453 77.989 23.4607C77.3133 23.4601 76.6605 23.4694 76.0343 23.4886C74.7063 23.5308 73.2685 23.5313 71.7511 23.4904C70.9521 23.475 70.1939 23.4797 69.4892 23.5041C67.8923 23.5367 66.3619 23.6093 64.8997 23.6427C61.9045 23.6768 59.1727 23.7992 56.2948 23.8637C55.6543 23.8797 55.0801 23.9357 54.2359 23.8391C53.3916 23.7425 53.3541 23.7299 53.2544 23.6699C53.0182 23.5698 52.9466 23.4727 53.0545 23.3989C53.2219 23.3299 53.5482 23.2915 53.975 23.2905C56.5477 23.1807 58.9879 23.0266 61.2803 22.829C62.2891 22.7894 63.173 22.7087 63.9012 22.5896C64.4787 22.5076 65.1638 22.4533 65.9349 22.4284C67.0564 22.3691 68.2256 22.3257 69.4377 22.2983C70.0017 22.2836 70.4812 22.2396 70.8481 22.1691C71.2151 22.0986 71.4619 22.0029 71.5741 21.8877L70.0881 21.5051C69.8547 21.4872 69.6231 21.4718 69.3943 21.4589L57.0608 21.7345L55.8394 21.7421C54.5007 21.7192 54.1735 21.6628 52.9036 21.2196C55.8017 21.1153 58.0798 20.8114 59.5112 20.3381C59.1672 20.2872 58.8145 20.2435 58.4614 20.208C56.1454 20.0961 53.9561 20.0663 51.9777 20.1199C50.8026 20.1253 49.5943 20.1107 48.3816 20.1035C48.7363 19.8853 50.095 19.9503 50.9806 19.9011C53.0965 19.8241 54.9676 19.6651 56.534 19.4292C57.0741 19.3372 57.7497 19.2784 58.5301 19.2554C59.311 19.2475 59.9633 19.1918 60.4302 19.0932C60.8972 18.9946 61.1646 18.856 61.2092 18.6896C61.2827 18.5389 61.4413 18.3989 61.6824 18.2716C61.2558 18.091 60.5785 17.9181 59.7776 17.7852C58.9766 17.6524 58.1071 17.5688 57.3321 17.5501C55.6777 17.4758 53.9618 17.354 52.2279 17.188C51.3643 17.1043 50.5174 17.0563 49.7423 17.047C49.0587 17.0399 48.2818 16.9794 47.5299 16.8748C46.7781 16.7702 46.0926 16.6272 45.5781 16.4677C44.8837 16.2705 44.2355 16.0711 43.5874 15.8716C42.9394 15.6722 42.1873 15.4202 41.4308 15.1756C40.7638 15.1373 40.1142 15.1127 39.491 15.1022C39.0062 15.1111 38.4404 15.0845 37.8605 15.0253C37.2806 14.9661 36.7106 14.877 36.2181 14.7683C36.507 14.6611 36.8336 14.5665 37.1776 14.4423C36.7054 14.2783 36.363 14.111 36.1713 13.9507C35.9795 13.7904 35.9425 13.6404 36.0625 13.5098C36.1327 13.3914 35.6193 13.1928 35.4419 13.0358C35.2135 12.9005 35.1707 12.7741 35.3188 12.6734C35.467 12.5727 35.7994 12.5023 36.2723 12.4714C36.8589 12.4144 37.3363 12.3286 37.6849 12.2174C37.8002 12.1886 37.8589 12.1491 37.8556 12.1025C37.8524 12.0559 37.7872 12.0038 37.6661 11.9509C37.545 11.898 37.3719 11.8459 37.1625 11.7995C36.9532 11.7532 36.7143 11.7139 36.4677 11.6854C35.7123 11.6045 34.9622 11.5521 34.2603 11.5311C33.0511 11.4926 31.8935 11.4684 30.7875 11.4585C29.5644 11.4436 28.2036 11.3518 26.8434 11.1924C25.6257 11.0416 24.5339 10.9064 23.9384 10.6181C23.343 10.3299 22.3909 10.3391 21.6589 10.1293C22.0701 9.94015 22.801 9.80875 23.7778 9.74831C24.417 9.72674 24.9506 9.67013 25.3443 9.5821C25.7381 9.49407 25.9832 9.37657 26.0641 9.23713L23.8415 8.65207C22.0666 8.37664 21.0845 8.58863 19.1667 8.4782L21.1428 8.26222C21.1825 8.24087 21.1973 8.21581 21.1866 8.18822C20.9948 7.7514 20.6895 7.65799 18.6695 7.41575L17.5358 7.27533L15.7413 7.10869C15.454 7.01917 15.2552 6.92582 15.1649 6.83796C15.0746 6.7501 15.0959 6.67083 15.2267 6.60807C15.4896 6.50252 15.5696 6.36764 15.4592 6.21586C15.2851 6.11531 15.2708 6.02262 15.4186 5.95386C15.5664 5.88511 15.867 5.84463 16.2682 5.83946C16.5885 5.83146 16.6123 5.71526 16.7865 5.64946C16.9596 5.55876 17.2559 5.48918 17.6552 5.44542C18.0545 5.40166 18.5473 5.38476 19.1003 5.39587C20.7307 5.40495 22.2623 5.37091 23.6679 5.29434L23.4159 5.26314C24.881 5.33036 26.2507 5.33851 27.4584 5.2872C28.6686 5.22262 30.2217 5.26405 31.5071 5.22467C32.5536 5.2337 33.3503 5.14431 33.7282 4.97549C34.0942 4.81429 35.4241 4.85191 36.4425 4.88272C37.0458 4.90266 37.6289 4.9111 38.1855 4.90796C38.9327 4.87148 39.8668 4.90587 40.8323 5.00541C41.122 5.036 41.4073 5.05219 41.6608 5.05242C44.1151 5.09426 46.565 5.14349 48.9861 5.16533C49.5449 5.15276 50.2002 5.18156 50.875 5.24836C51.1587 5.27736 51.4347 5.28938 51.6661 5.28278C55.4916 5.21644 59.8085 5.38571 63.5589 5.29416C64.0134 5.27254 64.5167 5.26805 65.0544 5.28079C66.2625 5.33457 67.3117 5.29996 68.0426 5.18223C68.4369 5.11961 68.9425 5.08511 69.527 5.08092C70.1115 5.07672 70.7622 5.10294 71.4376 5.15789C72.5614 5.23064 73.6001 5.23853 74.444 5.18072C76.0894 5.12731 77.8198 5.10535 79.6215 5.11501C80.1735 5.12436 80.6588 5.1036 81.0397 5.05436C81.4206 5.00511 81.6869 4.92869 81.818 4.83103C81.3755 4.66501 80.8917 4.64481 80.4324 4.6594C78.6518 4.62157 76.8756 4.57634 75.1283 4.55852C73.5643 4.50759 72.0636 4.49203 70.6484 4.51204C69.9456 4.53462 69.0688 4.48314 68.2091 4.3688C67.1555 4.224 66.0704 4.15207 65.1731 4.16754C64.5079 4.17138 63.8057 4.15891 63.0767 4.13031C62.6101 4.09581 62.1318 4.03658 61.691 3.95869C61.5161 3.92486 61.3256 3.89641 61.1319 3.87517C60.9383 3.85393 60.7457 3.84038 60.5663 3.83535C60.3868 3.83032 60.2245 3.83393 60.0899 3.84597C59.9553 3.858 59.8514 3.8782 59.7845 3.90526C59.1095 4.13146 57.6003 4.01602 56.308 3.991C54.3713 3.60816 52.9299 3.83476 51.1199 3.61852C50.9768 3.60418 50.8357 3.5955 50.7054 3.59302C50.5751 3.59055 50.4584 3.59432 50.3621 3.6041C46.8593 3.73425 42.7768 3.62579 39.0991 3.67073C38.6935 3.6773 38.2227 3.65478 37.7404 3.60571C34.5876 3.28097 31.5563 3.18878 29.2392 3.34716C28.9573 3.36143 28.6366 3.36203 28.2917 3.34896C26.7074 3.21989 25.1924 3.16843 23.8732 3.19888C21.8056 3.18905 19.8176 3.19702 17.7168 3.16719C16.2686 3.12474 14.9982 3.17009 14.0328 3.29872C14.0021 3.35052 13.359 3.29471 12.8664 3.2893C12.5831 3.15889 12.3374 3.0411 12.0454 2.92548C11.7843 2.78246 11.3931 2.63772 10.8986 2.5011C10.4041 2.36447 9.81781 2.23916 9.17921 2.13362C8.08741 1.99839 7.97822 1.80217 8.7422 1.72998C10.7113 1.49114 13.1874 1.39338 15.9885 1.44388C18.3299 1.44792 20.7135 1.45717 23.0882 1.48121C24.4733 1.50183 25.9335 1.54764 27.2809 1.55566C27.7356 1.57328 28.2027 1.59925 28.6773 1.63329C29.2597 1.68264 29.8251 1.70953 30.3432 1.71252C32.0067 1.67095 33.8632 1.70716 35.8241 1.81941C36.5424 1.84389 37.232 1.85214 37.8829 1.84404C39.4226 1.81357 41.0919 1.83599 42.8466 1.91071C43.9371 1.95285 44.9945 1.97488 46.0079 1.97658C46.3658 1.98118 46.6572 1.94578 47.0019 1.97259C50.036 2.25305 52.1844 2.05047 54.9151 2.15832C56.2423 2.18839 57.5102 2.18847 58.7012 2.15857C61.0254 2.16002 63.4143 2.19077 65.8585 2.25069C69.0906 2.34915 72.0857 2.31498 75.1717 2.35563C75.781 2.36417 76.3693 2.36272 76.9323 2.35127C79.671 2.27562 82.6456 2.29166 85.7837 2.39901C86.4962 2.41452 87.1362 2.39555 87.6635 2.34332C88.1909 2.29108 88.5942 2.20669 88.8483 2.09544C88.9558 2.01908 88.8861 1.9199 88.6527 1.81703C88.2654 1.68566 87.828 1.55694 87.3478 1.433L69.88 1.0171C69.1463 0.995384 68.4309 0.983691 67.7372 0.982074C65.6972 0.97846 63.5943 0.946106 61.4391 0.885173C59.3095 0.827939 57.2751 0.838099 55.2118 0.820868C54.6041 0.815092 53.9803 0.801473 53.343 0.780045C49.0351 0.610453 44.8344 0.506864 40.7706 0.47003C39.0609 0.464806 37.2138 0.386972 35.4709 0.361742C33.7279 0.336513 31.3444 0.327277 29.2768 0.317443L22.8755 0.318954C21.6164 0.313936 20.3904 0.328913 19.1689 0.336493C17.6866 -0.204551 17.1758 -0.331366 15.1978 -0.568405C14.5211 -0.655841 13.8328 -0.708024 13.2135 -0.718834C11.25 -0.676062 8.78626 -0.854106 6.92424 -0.830536C5.80067 -0.842163 4.84727 -0.78206 4.16164 -0.656374C3.56647 -0.557737 2.88588 -0.479687 2.13039 -0.423405C0.0608258 -0.886252 -0.121563 -1.18686 1.43522 -1.30384C1.85701 -1.33104 2.43799 -1.32262 2.74257 -1.38022C2.91733 -1.4153 3.15607 -1.43536 3.43977 -1.43883C3.72347 -1.44229 4.04427 -1.42908 4.37702 -1.4002C5.42721 -1.32446 6.41154 -1.30664 7.23124 -1.34855C8.00268 -1.40401 8.94828 -1.4018 9.9769 -1.34212C10.7328 -1.2485 11.3971 -1.38069 12.0508 -1.41888C12.7045 -1.45707 13.2409 -1.52568 14.2619 -1.42306C14.4488 -1.40262 14.6344 -1.39035 14.8045 -1.3872C14.9745 -1.38404 15.1244 -1.39008 15.2427 -1.40484C16.3393 -1.47093 17.6478 -1.46398 19.0621 -1.38457C21.2311 -1.30643 23.2663 -1.3035 25.0969 -1.37588C26.1927 -1.43921 27.127 -1.55153 27.8632 -1.70845C28.0639 -1.76093 28.3619 -1.7924 28.7287 -1.79984C30.5705 -1.7671 32.5704 -1.64388 34.5994 -1.43813C35.3638 -1.35569 36.1272 -1.29048 36.8732 -1.24389C38.4067 -1.14039 39.8898 -1.08239 41.2786 -1.07162C43.2967 -1.06991 45.3979 -1.03009 47.5635 -0.952513C48.9 -0.909319 50.1878 -0.893377 51.4116 -0.904859C52.6695 -0.910271 54.0126 -0.877322 55.4103 -0.806782C56.8003 -0.749296 58.0252 -0.782416 58.9375 -0.902136C59.2379 -0.966649 59.4798 -1.04326 59.6588 -1.13053C57.6236 -1.41451 55.5187 -1.55884 53.768 -1.53444C53.1031 -1.55326 52.5509 -1.53427 51.8502 -1.64488L51.8283 -1.60788C51.6888 -1.58387 51.4785 -1.57821 51.2372 -1.59197C50.996 -1.60573 50.7409 -1.63795 50.5203 -1.68249C50.6036 -1.8231 50.6826 -1.9563 50.7396 -2.0525C52.0735 -2.03553 53.3687 -2.03691 54.6185 -2.05664C55.672 -2.08502 57.1022 -1.83639 58.0141 -1.92999C59.7928 -1.81295 60.9253 -1.97454 62.5203 -1.92792C64.1154 -1.88129 65.8722 -1.72725 67.4672 -1.68063C68.8591 -1.65504 70.2105 -1.64948 71.514 -1.66397C71.9639 -1.68431 72.4826 -1.67953 73.0382 -1.64995C73.8193 -1.59428 74.5457 -1.58495 75.1343 -1.62303C75.7229 -1.66112 76.1497 -1.74509 76.3661 -1.86531C76.1624 -1.97791 75.8879 -2.12311 75.5714 -2.27352C76.1537 -2.39711 77.038 -2.44916 78.0933 -2.4219L79.5843 -2.42787C79.9795 -2.42461 80.2815 -2.45802 80.428 -2.52119C80.5745 -2.58436 80.5543 -2.67246 80.3715 -2.76727C77.5442 -3.24453 77.4401 -3.29714 75.365 -2.99016L72.6099 -3.13281L72.6563 -3.135ZM109.922 -1.82398L109.712 -1.84998L109.922 -1.82398ZM453.27 48.9538L453.222 49.0352L453.274 48.9464L453.736 49.0036L453.767 48.9518L453.27 48.9538ZM386.205 13.2747C385.552 13.1858 384.893 13.1042 384.231 13.0302C384.058 13.0187 383.896 13.0162 383.759 13.0227C383.621 13.0292 383.513 13.0446 383.443 13.0676C383.39 13.1564 383.759 13.218 384.095 13.2596C384.519 13.3156 384.952 13.3512 385.349 13.3627C385.746 13.3742 386.094 13.3612 386.355 13.3251L386.735 13.2927L386.205 13.2747ZM49.9235 34.9182C50.3533 34.9332 50.761 34.9356 51.1363 34.9255C52.8015 34.8537 54.3958 34.7493 56.103 34.6827C58.2571 34.5137 60.7323 34.4449 63.4358 34.4788C64.492 34.4954 65.3843 34.4406 66.0086 34.3209C66.3823 34.2566 66.8647 34.2191 67.4262 34.2105L74.5734 34.0154C75.0152 33.9749 75.3972 33.9181 75.7103 33.8464C75.0804 33.7684 74.6605 33.7164 74.4086 33.6852C73.8858 33.6764 73.4365 33.7002 73.1056 33.7542C72.7502 33.8456 72.1495 33.8818 71.4228 33.8555C70.6891 33.8338 69.9737 33.8221 69.2801 33.8205C67.9702 33.8251 66.6514 33.8445 65.3372 33.8564C64.8258 34.1108 63.3166 33.9954 62.0243 33.9704L61.0259 33.9818C57.7624 34.1137 54.645 34.2951 51.6889 34.5253C51.1176 34.5642 50.6254 34.6263 50.2275 34.7096C50.0775 34.7747 50.0295 34.8557 50.0871 34.9465L49.8772 34.9205L49.9235 34.9182ZM195.657 59.243C196.449 59.2603 197.273 59.2959 198.118 59.3492C198.769 59.4037 199.404 59.4367 199.998 59.4471C203.327 59.5041 206.795 59.6358 210.357 59.8404C210.823 59.8714 211.271 59.8866 211.683 59.8855L214.599 59.8335C215.517 59.8043 215.535 59.7747 214.866 59.3821C214.311 59.3059 213.75 59.2364 213.186 59.1741C212.851 59.1325 212.305 59.0649 212.177 59.1285C211.398 59.3021 209.977 59.1896 208.782 59.1528C205.322 59.0579 201.754 58.9179 198.261 58.803C197.523 58.775 196.808 58.7608 196.123 58.7606C195.698 58.7547 195.311 58.7658 194.977 58.7934C194.879 58.7962 194.797 58.8044 194.737 58.8175C194.677 58.8306 194.639 58.8482 194.627 58.8692C194.614 58.8902 194.627 58.9141 194.665 58.9393C194.703 58.9645 194.764 58.9904 194.845 59.0154C195.131 59.1028 195.461 59.1865 195.825 59.2638L195.657 59.243ZM221 2.25829L224.408 2.21174C224.817 2.20675 225.164 2.15435 225.601 2.17676C227.935 2.24777 230.095 2.22799 231.991 2.11826C232.637 2.07348 233.392 2.06452 234.215 2.09189C236.737 2.17298 239.115 2.17632 241.286 2.1018C242.689 2.08685 244.003 2.03662 245.206 1.95186C245.299 1.93219 245.357 1.90547 245.376 1.87355C245.395 1.84162 245.374 1.80523 245.316 1.76686C245.301 1.74261 245.26 1.71653 245.195 1.69042C245.131 1.6643 245.045 1.63876 244.943 1.61556C244.841 1.59237 244.726 1.57208 244.605 1.55607C244.484 1.54005 244.361 1.5287 244.244 1.52282C242.723 1.40809 241.279 1.36812 240.031 1.40616C238.873 1.45167 237.627 1.46498 236.311 1.4459C235.052 1.44088 234.198 1.58927 232.642 1.47604C231.984 1.43876 231.404 1.45103 230.999 1.51081C230.184 1.6099 229.047 1.61541 227.789 1.52637C227.037 1.4813 226.318 1.46198 225.66 1.46913C224.063 1.5017 222.537 1.56688 221.057 1.62986C220.591 1.64443 220.091 1.64644 219.566 1.63585L212.157 1.51252C210.376 1.4747 208.6 1.42947 206.853 1.41164C205.424 1.37293 204.094 1.38505 202.91 1.44758C201.648 1.5133 200.271 1.53999 198.806 1.52712C196.531 1.56309 194.269 1.57685 191.793 1.57201C190.214 1.57498 188.597 1.56536 186.946 1.53574C186.112 1.49761 185.403 1.52866 184.957 1.62291C184.685 1.70051 184.047 1.6373 183.516 1.61928C180.688 1.44571 178.036 1.40459 175.745 1.49877C175.452 1.51411 175.131 1.51967 174.788 1.51534C172.582 1.51211 170.295 1.49107 168.177 1.49084C167.619 1.49815 167.094 1.51823 166.609 1.55082C166.661 1.60398 166.809 1.6616 167.023 1.71173C167.236 1.76186 167.499 1.80065 167.757 1.82005C169.76 1.96857 171.695 2.04703 173.479 2.05214C176.448 2.03322 179.559 2.07576 182.779 2.1793C185.277 2.28368 187.555 2.26171 189.443 2.115C190.919 2.00553 192.839 2.04672 194.873 2.23149C195.743 2.31973 196.588 2.35502 197.292 2.33252C197.969 2.30301 198.747 2.31017 199.578 2.35357C201.332 2.43608 203.018 2.47436 204.604 2.46765C206.155 2.43727 207.601 2.35429 209.194 2.32911C210.786 2.30394 213.212 2.31836 215.175 2.27559C217.139 2.23282 219.08 2.22706 221 2.25829ZM79.7781 -2.07025C79.958 -1.84144 80.5948 -1.69902 81.2798 -1.63801C83.6416 -1.36709 85.9765 -1.25181 87.8925 -1.3115C88.9275 -1.39477 90.3073 -1.36272 91.7607 -1.22165C93.4531 -1.075 95.0349 -1.05068 96.2274 -1.15297C96.5196 -1.17085 96.7433 -1.20863 96.8786 -1.26296C96.9049 -1.30737 96.9532 -1.38877 96.9619 -1.40357C96.8366 -1.4411 96.683 -1.47588 96.5128 -1.50522C96.3426 -1.53456 96.1605 -1.55767 95.9805 -1.57278L88.1576 -1.83471L86.7943 -1.89235C84.3043 -2.04335 81.9317 -2.10351 79.7781 -2.07025ZM95.1657 1.55132C96.3867 1.92496 96.3909 1.91754 97.0164 2.00295C100.034 2.35773 103.05 2.54925 105.704 2.55471C106.294 2.55363 106.795 2.51756 107.164 2.44954C107.354 2.44032 107.475 2.41103 107.5 2.36806C107.526 2.32508 107.454 2.27191 107.3 2.22013L106.329 1.95691C104.566 1.84296 102.828 1.75241 101.126 1.68582C99.1442 1.60718 97.388 1.60415 95.3336 1.57212L95.1657 1.55132ZM195.51 57.5885C196.648 58.1028 196.652 58.0954 198.557 58.228C199.884 58.322 201.172 58.3772 202.381 58.3919C203.859 58.4081 205.375 58.4369 206.848 58.4605C207.208 58.4769 207.513 58.4633 207.704 58.4224C207.895 58.3814 207.958 58.3161 207.881 58.239C207.688 58.1553 207.385 58.0743 207.023 58.0092C206.66 57.9442 206.259 57.8988 205.885 57.8805L205.081 57.8683C204.104 57.8427 203.09 57.8045 202.147 57.7988C201.535 57.8202 200.826 57.8037 200.075 57.7507C199.325 57.6977 198.553 57.6096 197.821 57.4934L195.51 57.5885ZM101.241 -1.39789C101.544 -1.30884 101.888 -1.22354 102.262 -1.14428C103.711 -0.92458 105.245 -0.799799 106.562 -0.794398C107.185 -0.780789 107.755 -0.829381 108.389 -0.758769C109.527 -0.66441 110.629 -0.614148 111.637 -0.610702C111.637 -0.610702 111.92 -0.631305 112.012 -0.635703L112.205 -0.961311C111.728 -1.03674 111.231 -1.09837 110.736 -1.14334C109.074 -1.22997 107.442 -1.2892 105.813 -1.35583C104.185 -1.42245 103.617 -1.45306 102.552 -1.48168C102.077 -1.46595 101.638 -1.43788 101.241 -1.39789ZM65.2605 39.0816L67.4348 39.7481C68.1384 39.806 68.7957 39.8165 69.3067 39.778C69.8177 39.7395 70.1544 39.654 70.2656 39.5347C70.4446 39.4789 70.4626 39.3962 70.3156 39.3039C70.1686 39.2117 69.8681 39.117 69.4771 39.0399C69.1008 38.9485 68.6713 38.8665 68.215 38.799C67.7587 38.7316 67.2855 38.6801 66.8248 38.6479L65.2605 39.0816ZM83.3637 35.7634C81.9415 35.6504 80.5814 35.6042 79.387 35.6283C78.6346 35.6944 77.615 35.6733 76.5373 35.5693C74.5775 35.362 72.6883 35.3046 71.2683 35.4092C71.2683 35.4092 71.2156 35.498 70.975 35.5238C70.7343 35.5496 71.6888 35.6122 71.8988 35.6382C73.4387 35.7018 74.9874 35.7507 76.3261 35.7735C77.1572 35.7725 78.0363 35.7935 78.9483 35.8361C80.2031 35.9019 81.3931 35.9232 82.4719 35.8992C82.4719 35.8992 82.8892 35.8794 83.3593 35.7708L83.3637 35.7634ZM235.238 1.05086C234.559 0.92535 233.822 0.823339 233.084 0.752492C232.345 0.681642 231.623 0.643798 230.973 0.641783C230.475 0.635234 230.072 0.668374 229.828 0.735961C229.584 0.80355 229.512 0.90173 229.625 1.01498C230.129 1.07739 230.801 1.1606 231.179 1.2074C232.489 1.20283 233.606 1.14264 235.238 1.05086ZM362.39 11.6278C361.845 11.5268 361.245 11.4495 360.657 11.4049C360.07 11.3603 359.52 11.35 359.069 11.3754C358.837 11.3864 358.994 11.5012 358.955 11.5678C358.929 11.5829 358.929 11.6017 358.956 11.6221C358.982 11.6426 359.033 11.6641 359.104 11.6843C359.175 11.7044 359.263 11.7226 359.359 11.7368C359.455 11.751 359.555 11.7607 359.649 11.765C360.241 11.8085 360.799 11.8215 361.274 11.8027C361.749 11.7839 362.126 11.734 362.372 11.6574L362.39 11.6278ZM370.909 13.0722C370.825 13.0126 370.646 12.9504 370.404 12.8972C370.162 12.8439 369.875 12.8031 369.594 12.7822C369.097 12.7794 368.646 12.7959 368.258 12.8312C367.836 12.8583 368.139 13.031 368.71 13.1334C368.951 13.1745 369.209 13.2066 369.463 13.227C369.717 13.2475 369.96 13.2558 370.173 13.2513C370.386 13.2468 370.562 13.2296 370.689 13.2011C370.815 13.1726 370.887 13.1335 370.901 13.087L370.909 13.0722ZM123.357 -0.763733C122.086 -0.976761 121.108 -0.923169 120.032 -1.00879C118.955 -1.09441 118.69 -1.10342 118.834 -0.966411C118.979 -0.829402 119.716 -0.857189 120.178 -0.79998C120.802 -0.724066 121.43 -0.680478 121.992 -0.674075C122.553 -0.667674 123.026 -0.698715 123.357 -0.763733ZM388.218 35.2809C387.544 35.2331 386.885 35.1993 386.249 35.1801C386.165 35.1999 386.113 35.2258 386.095 35.2563C386.077 35.2868 386.093 35.3213 386.144 35.3577C386.144 35.3577 386.575 35.4667 386.827 35.4979C387.755 35.6049 387.801 35.4517 388.218 35.2809ZM483.371 55.1285C483.827 55.2723 484.039 55.3701 484.404 55.4391C484.572 55.4631 484.745 55.4805 484.911 55.4901C485.077 55.4996 485.231 55.5011 485.363 55.4943C485.523 55.4529 485.561 55.3895 485.468 55.3167C485.468 55.3167 485.004 55.1877 484.827 55.1817C484.323 55.1513 483.834 55.1334 483.371 55.1285ZM101.722 -1.98171C100.756 -2.10133 99.8322 -2.21576 99.1635 -2.07616C100.697 -1.92593 100.697 -1.92592 101.722 -1.98171ZM117.365 -0.61622C116.39 -0.872045 115.817 -0.89526 115.349 -0.865866C115.25 -0.858462 115.184 -0.841961 115.162 -0.818869C115.139 -0.795776 115.162 -0.767344 115.226 -0.737874C115.29 -0.708403 115.392 -0.679501 115.516 -0.655535C115.641 -0.631569 115.781 -0.613844 115.916 -0.605044C116.424 -0.597681 116.909 -0.60142 117.365 -0.61622ZM167.559 -0.508042C167.581 -0.545043 167.607 -0.589444 167.355 -0.620649C167.289 -0.636491 167.212 -0.650112 167.13 -0.660153C167.049 -0.670197 166.968 -0.676299 166.893 -0.67785C166.893 -0.67785 166.867 -0.633447 166.849 -0.603847L167.559 -0.508042ZM202.414 60.922L201.854 60.9558L202.106 60.987L202.77 61.0058L202.414 60.922ZM399.919 12.4948C399.709 12.4688 399.499 12.4428 399.468 12.4946C399.424 12.5027 399.396 12.5142 399.388 12.5284C399.38 12.5426 399.391 12.5589 399.42 12.576C399.42 12.576 399.714 12.6124 399.84 12.628L399.919 12.4948ZM367.22 12.9091C367.082 12.9062 366.957 12.9096 366.853 12.9193L366.827 12.9637L367.247 13.0158L367.22 12.9091ZM82.2546 23.4885C82.0924 23.4616 81.9205 23.4403 81.7507 23.4261L81.5407 23.4001C81.5407 23.4001 81.7663 23.4757 81.8923 23.4913C82.0183 23.5069 82.1199 23.4877 82.2546 23.4885Z" fill="#DF6951"/>
</svg>
